G04 #@! TF.GenerationSoftware,KiCad,Pcbnew,(5.0.0)*
G04 #@! TF.CreationDate,2020-02-18T16:56:27+01:00*
G04 #@! TF.ProjectId,Test multiplexeur analogique,54657374206D756C7469706C65786575,rev?*
G04 #@! TF.SameCoordinates,Original*
G04 #@! TF.FileFunction,Copper,L1,Top,Signal*
G04 #@! TF.FilePolarity,Positive*
%FSLAX46Y46*%
G04 Gerber Fmt 4.6, Leading zero omitted, Abs format (unit mm)*
G04 Created by KiCad (PCBNEW (5.0.0)) date 02/18/20 16:56:27*
%MOMM*%
%LPD*%
G01*
G04 APERTURE LIST*
G04 #@! TA.AperFunction,ComponentPad*
%ADD10O,1.700000X1.700000*%
G04 #@! TD*
G04 #@! TA.AperFunction,ComponentPad*
%ADD11R,1.700000X1.700000*%
G04 #@! TD*
G04 #@! TA.AperFunction,SMDPad,CuDef*
%ADD12R,3.400000X5.000000*%
G04 #@! TD*
G04 #@! TA.AperFunction,SMDPad,CuDef*
%ADD13R,1.050000X0.450000*%
G04 #@! TD*
G04 #@! TA.AperFunction,Conductor*
%ADD14C,0.250000*%
G04 #@! TD*
G04 APERTURE END LIST*
D10*
G04 #@! TO.P,J1,8*
G04 #@! TO.N,Net-(J1-Pad8)*
X152400000Y-99060000D03*
G04 #@! TO.P,J1,7*
G04 #@! TO.N,Net-(J1-Pad7)*
X152400000Y-96520000D03*
G04 #@! TO.P,J1,6*
G04 #@! TO.N,Net-(J1-Pad6)*
X152400000Y-93980000D03*
G04 #@! TO.P,J1,5*
G04 #@! TO.N,Net-(J1-Pad5)*
X152400000Y-91440000D03*
G04 #@! TO.P,J1,4*
G04 #@! TO.N,Net-(J1-Pad4)*
X152400000Y-88900000D03*
G04 #@! TO.P,J1,3*
G04 #@! TO.N,Net-(J1-Pad3)*
X152400000Y-86360000D03*
G04 #@! TO.P,J1,2*
G04 #@! TO.N,Net-(J1-Pad2)*
X152400000Y-83820000D03*
D11*
G04 #@! TO.P,J1,1*
G04 #@! TO.N,Net-(J1-Pad1)*
X152400000Y-81280000D03*
G04 #@! TD*
G04 #@! TO.P,J2,1*
G04 #@! TO.N,Net-(J2-Pad1)*
X167640000Y-81280000D03*
D10*
G04 #@! TO.P,J2,2*
G04 #@! TO.N,Net-(J2-Pad2)*
X167640000Y-83820000D03*
G04 #@! TO.P,J2,3*
G04 #@! TO.N,Net-(J2-Pad3)*
X167640000Y-86360000D03*
G04 #@! TO.P,J2,4*
G04 #@! TO.N,Net-(J2-Pad4)*
X167640000Y-88900000D03*
G04 #@! TO.P,J2,5*
G04 #@! TO.N,Net-(J2-Pad5)*
X167640000Y-91440000D03*
G04 #@! TO.P,J2,6*
G04 #@! TO.N,Net-(J2-Pad6)*
X167640000Y-93980000D03*
G04 #@! TO.P,J2,7*
G04 #@! TO.N,Net-(J2-Pad7)*
X167640000Y-96520000D03*
G04 #@! TO.P,J2,8*
G04 #@! TO.N,Net-(J2-Pad8)*
X167640000Y-99060000D03*
G04 #@! TD*
D12*
G04 #@! TO.P,U1,17*
G04 #@! TO.N,N/C*
X160020000Y-89525000D03*
D13*
G04 #@! TO.P,U1,16*
G04 #@! TO.N,Net-(J2-Pad1)*
X162795000Y-87250000D03*
G04 #@! TO.P,U1,15*
G04 #@! TO.N,Net-(J2-Pad2)*
X162795000Y-87900000D03*
G04 #@! TO.P,U1,14*
G04 #@! TO.N,Net-(J2-Pad3)*
X162795000Y-88550000D03*
G04 #@! TO.P,U1,13*
G04 #@! TO.N,Net-(J2-Pad4)*
X162795000Y-89200000D03*
G04 #@! TO.P,U1,12*
G04 #@! TO.N,Net-(J2-Pad5)*
X162795000Y-89850000D03*
G04 #@! TO.P,U1,11*
G04 #@! TO.N,Net-(J2-Pad6)*
X162795000Y-90500000D03*
G04 #@! TO.P,U1,10*
G04 #@! TO.N,Net-(J2-Pad7)*
X162795000Y-91150000D03*
G04 #@! TO.P,U1,9*
G04 #@! TO.N,Net-(J2-Pad8)*
X162795000Y-91800000D03*
G04 #@! TO.P,U1,8*
G04 #@! TO.N,Net-(J1-Pad8)*
X157245000Y-91800000D03*
G04 #@! TO.P,U1,7*
G04 #@! TO.N,Net-(J1-Pad7)*
X157245000Y-91150000D03*
G04 #@! TO.P,U1,6*
G04 #@! TO.N,Net-(J1-Pad6)*
X157245000Y-90500000D03*
G04 #@! TO.P,U1,5*
G04 #@! TO.N,Net-(J1-Pad5)*
X157245000Y-89850000D03*
G04 #@! TO.P,U1,4*
G04 #@! TO.N,Net-(J1-Pad4)*
X157245000Y-89200000D03*
G04 #@! TO.P,U1,3*
G04 #@! TO.N,Net-(J1-Pad3)*
X157245000Y-88550000D03*
G04 #@! TO.P,U1,2*
G04 #@! TO.N,Net-(J1-Pad2)*
X157245000Y-87900000D03*
G04 #@! TO.P,U1,1*
G04 #@! TO.N,Net-(J1-Pad1)*
X157245000Y-87250000D03*
G04 #@! TD*
D14*
G04 #@! TO.N,Net-(J1-Pad1)*
X152400000Y-81280000D02*
X156210000Y-81280000D01*
X157245000Y-82315000D02*
X157245000Y-87250000D01*
X156210000Y-81280000D02*
X157245000Y-82315000D01*
G04 #@! TO.N,Net-(J1-Pad2)*
X157245000Y-87900000D02*
X155930000Y-87900000D01*
X155930000Y-87900000D02*
X155370000Y-87340000D01*
X155370000Y-87340000D02*
X155370000Y-84330000D01*
X154860000Y-83820000D02*
X152400000Y-83820000D01*
X155370000Y-84330000D02*
X154860000Y-83820000D01*
G04 #@! TO.N,Net-(J1-Pad3)*
X157245000Y-88550000D02*
X155250000Y-88550000D01*
X155250000Y-88550000D02*
X154380000Y-87680000D01*
X154380000Y-87680000D02*
X154380000Y-86850000D01*
X153890000Y-86360000D02*
X152400000Y-86360000D01*
X154380000Y-86850000D02*
X153890000Y-86360000D01*
G04 #@! TO.N,Net-(J1-Pad4)*
X152700000Y-89200000D02*
X152400000Y-88900000D01*
X157245000Y-89200000D02*
X152700000Y-89200000D01*
G04 #@! TO.N,Net-(J1-Pad5)*
X157245000Y-89850000D02*
X155340000Y-89850000D01*
X155340000Y-89850000D02*
X154610000Y-90580000D01*
X154610000Y-90580000D02*
X154610000Y-91220000D01*
X154390000Y-91440000D02*
X152400000Y-91440000D01*
X154610000Y-91220000D02*
X154390000Y-91440000D01*
G04 #@! TO.N,Net-(J1-Pad6)*
X157245000Y-90500000D02*
X156000000Y-90500000D01*
X156000000Y-90500000D02*
X155250000Y-91250000D01*
X155250000Y-91250000D02*
X155250000Y-93650000D01*
X154920000Y-93980000D02*
X152400000Y-93980000D01*
X155250000Y-93650000D02*
X154920000Y-93980000D01*
G04 #@! TO.N,Net-(J1-Pad7)*
X155010000Y-96520000D02*
X152400000Y-96520000D01*
X155900000Y-95630000D02*
X155010000Y-96520000D01*
X155900000Y-91720000D02*
X155900000Y-95630000D01*
X157245000Y-91150000D02*
X156470000Y-91150000D01*
X156470000Y-91150000D02*
X155900000Y-91720000D01*
G04 #@! TO.N,Net-(J1-Pad8)*
X152400000Y-99060000D02*
X155480000Y-99060000D01*
X157245000Y-97295000D02*
X157245000Y-91800000D01*
X155480000Y-99060000D02*
X157245000Y-97295000D01*
G04 #@! TO.N,Net-(J2-Pad8)*
X167640000Y-99060000D02*
X164710000Y-99060000D01*
X162795000Y-97145000D02*
X162795000Y-91800000D01*
X164710000Y-99060000D02*
X162795000Y-97145000D01*
G04 #@! TO.N,Net-(J2-Pad7)*
X163570000Y-91150000D02*
X164120000Y-91700000D01*
X162795000Y-91150000D02*
X163570000Y-91150000D01*
X164120000Y-91700000D02*
X164120000Y-96070000D01*
X164570000Y-96520000D02*
X167640000Y-96520000D01*
X164120000Y-96070000D02*
X164570000Y-96520000D01*
G04 #@! TO.N,Net-(J2-Pad6)*
X162795000Y-90500000D02*
X164430000Y-90500000D01*
X164430000Y-90500000D02*
X164890000Y-90960000D01*
X164890000Y-90960000D02*
X164890000Y-93180000D01*
X165690000Y-93980000D02*
X167640000Y-93980000D01*
X164890000Y-93180000D02*
X165690000Y-93980000D01*
G04 #@! TO.N,Net-(J2-Pad5)*
X162795000Y-89850000D02*
X165020000Y-89850000D01*
X165020000Y-89850000D02*
X165500000Y-90330000D01*
X165500000Y-90330000D02*
X165500000Y-90890000D01*
X166050000Y-91440000D02*
X167640000Y-91440000D01*
X165500000Y-90890000D02*
X166050000Y-91440000D01*
G04 #@! TO.N,Net-(J2-Pad4)*
X167340000Y-89200000D02*
X167640000Y-88900000D01*
X162795000Y-89200000D02*
X167340000Y-89200000D01*
G04 #@! TO.N,Net-(J2-Pad3)*
X162795000Y-88550000D02*
X164320000Y-88550000D01*
X164320000Y-88550000D02*
X164870000Y-88000000D01*
X164870000Y-88000000D02*
X164870000Y-87000000D01*
X165510000Y-86360000D02*
X167640000Y-86360000D01*
X164870000Y-87000000D02*
X165510000Y-86360000D01*
G04 #@! TO.N,Net-(J2-Pad2)*
X163570000Y-87900000D02*
X164120000Y-87350000D01*
X162795000Y-87900000D02*
X163570000Y-87900000D01*
X164120000Y-87350000D02*
X164120000Y-84630000D01*
X164930000Y-83820000D02*
X167640000Y-83820000D01*
X164120000Y-84630000D02*
X164930000Y-83820000D01*
G04 #@! TO.N,Net-(J2-Pad1)*
X167640000Y-81280000D02*
X163850000Y-81280000D01*
X162795000Y-82335000D02*
X162795000Y-87250000D01*
X163850000Y-81280000D02*
X162795000Y-82335000D01*
G04 #@! TD*
M02*
