G04 #@! TF.GenerationSoftware,KiCad,Pcbnew,(5.0.0)*
G04 #@! TF.CreationDate,2020-02-18T16:56:27+01:00*
G04 #@! TF.ProjectId,Test multiplexeur analogique,54657374206D756C7469706C65786575,rev?*
G04 #@! TF.SameCoordinates,Original*
G04 #@! TF.FileFunction,Legend,Top*
G04 #@! TF.FilePolarity,Positive*
%FSLAX46Y46*%
G04 Gerber Fmt 4.6, Leading zero omitted, Abs format (unit mm)*
G04 Created by KiCad (PCBNEW (5.0.0)) date 02/18/20 16:56:27*
%MOMM*%
%LPD*%
G01*
G04 APERTURE LIST*
%ADD10C,0.300000*%
%ADD11C,0.120000*%
%ADD12C,0.150000*%
G04 APERTURE END LIST*
D10*
X154662857Y-110093571D02*
X153805714Y-110093571D01*
X154234285Y-110093571D02*
X154234285Y-108593571D01*
X154091428Y-108807857D01*
X153948571Y-108950714D01*
X153805714Y-109022142D01*
X155234285Y-108736428D02*
X155305714Y-108665000D01*
X155448571Y-108593571D01*
X155805714Y-108593571D01*
X155948571Y-108665000D01*
X156020000Y-108736428D01*
X156091428Y-108879285D01*
X156091428Y-109022142D01*
X156020000Y-109236428D01*
X155162857Y-110093571D01*
X156091428Y-110093571D01*
X156805714Y-110022142D02*
X156805714Y-110093571D01*
X156734285Y-110236428D01*
X156662857Y-110307857D01*
X157305714Y-108593571D02*
X158305714Y-108593571D01*
X157662857Y-110093571D01*
X159162857Y-108593571D02*
X159305714Y-108593571D01*
X159448571Y-108665000D01*
X159520000Y-108736428D01*
X159591428Y-108879285D01*
X159662857Y-109165000D01*
X159662857Y-109522142D01*
X159591428Y-109807857D01*
X159520000Y-109950714D01*
X159448571Y-110022142D01*
X159305714Y-110093571D01*
X159162857Y-110093571D01*
X159020000Y-110022142D01*
X158948571Y-109950714D01*
X158877142Y-109807857D01*
X158805714Y-109522142D01*
X158805714Y-109165000D01*
X158877142Y-108879285D01*
X158948571Y-108736428D01*
X159020000Y-108665000D01*
X159162857Y-108593571D01*
X160591428Y-108593571D02*
X160734285Y-108593571D01*
X160877142Y-108665000D01*
X160948571Y-108736428D01*
X161020000Y-108879285D01*
X161091428Y-109165000D01*
X161091428Y-109522142D01*
X161020000Y-109807857D01*
X160948571Y-109950714D01*
X160877142Y-110022142D01*
X160734285Y-110093571D01*
X160591428Y-110093571D01*
X160448571Y-110022142D01*
X160377142Y-109950714D01*
X160305714Y-109807857D01*
X160234285Y-109522142D01*
X160234285Y-109165000D01*
X160305714Y-108879285D01*
X160377142Y-108736428D01*
X160448571Y-108665000D01*
X160591428Y-108593571D01*
X162877142Y-110093571D02*
X162877142Y-109093571D01*
X162877142Y-109236428D02*
X162948571Y-109165000D01*
X163091428Y-109093571D01*
X163305714Y-109093571D01*
X163448571Y-109165000D01*
X163520000Y-109307857D01*
X163520000Y-110093571D01*
X163520000Y-109307857D02*
X163591428Y-109165000D01*
X163734285Y-109093571D01*
X163948571Y-109093571D01*
X164091428Y-109165000D01*
X164162857Y-109307857D01*
X164162857Y-110093571D01*
X164877142Y-110093571D02*
X164877142Y-109093571D01*
X164877142Y-109236428D02*
X164948571Y-109165000D01*
X165091428Y-109093571D01*
X165305714Y-109093571D01*
X165448571Y-109165000D01*
X165520000Y-109307857D01*
X165520000Y-110093571D01*
X165520000Y-109307857D02*
X165591428Y-109165000D01*
X165734285Y-109093571D01*
X165948571Y-109093571D01*
X166091428Y-109165000D01*
X166162857Y-109307857D01*
X166162857Y-110093571D01*
X153670000Y-107315000D02*
X166370000Y-107315000D01*
X153670000Y-100330000D02*
X153670000Y-107901421D01*
X166370000Y-100330000D02*
X166370000Y-107901421D01*
X166370000Y-107315000D02*
X165243496Y-107901421D01*
X166370000Y-107315000D02*
X165243496Y-106728579D01*
X153670000Y-107315000D02*
X154796504Y-107901421D01*
X153670000Y-107315000D02*
X154796504Y-106728579D01*
D11*
G04 #@! TO.C,J1*
X151070000Y-79950000D02*
X152400000Y-79950000D01*
X151070000Y-81280000D02*
X151070000Y-79950000D01*
X151070000Y-82550000D02*
X153730000Y-82550000D01*
X153730000Y-82550000D02*
X153730000Y-100390000D01*
X151070000Y-82550000D02*
X151070000Y-100390000D01*
X151070000Y-100390000D02*
X153730000Y-100390000D01*
G04 #@! TO.C,J2*
X166310000Y-100390000D02*
X168970000Y-100390000D01*
X166310000Y-82550000D02*
X166310000Y-100390000D01*
X168970000Y-82550000D02*
X168970000Y-100390000D01*
X166310000Y-82550000D02*
X168970000Y-82550000D01*
X166310000Y-81280000D02*
X166310000Y-79950000D01*
X166310000Y-79950000D02*
X167640000Y-79950000D01*
D12*
G04 #@! TO.C,U1*
X156645000Y-86700000D02*
X162270000Y-86700000D01*
X157770000Y-92250000D02*
X162270000Y-92250000D01*
G04 #@! TO.C,J1*
X152066666Y-78402380D02*
X152066666Y-79116666D01*
X152019047Y-79259523D01*
X151923809Y-79354761D01*
X151780952Y-79402380D01*
X151685714Y-79402380D01*
X153066666Y-79402380D02*
X152495238Y-79402380D01*
X152780952Y-79402380D02*
X152780952Y-78402380D01*
X152685714Y-78545238D01*
X152590476Y-78640476D01*
X152495238Y-78688095D01*
G04 #@! TO.C,J2*
X167306666Y-78402380D02*
X167306666Y-79116666D01*
X167259047Y-79259523D01*
X167163809Y-79354761D01*
X167020952Y-79402380D01*
X166925714Y-79402380D01*
X167735238Y-78497619D02*
X167782857Y-78450000D01*
X167878095Y-78402380D01*
X168116190Y-78402380D01*
X168211428Y-78450000D01*
X168259047Y-78497619D01*
X168306666Y-78592857D01*
X168306666Y-78688095D01*
X168259047Y-78830952D01*
X167687619Y-79402380D01*
X168306666Y-79402380D01*
G04 #@! TO.C,U1*
X159258095Y-85427380D02*
X159258095Y-86236904D01*
X159305714Y-86332142D01*
X159353333Y-86379761D01*
X159448571Y-86427380D01*
X159639047Y-86427380D01*
X159734285Y-86379761D01*
X159781904Y-86332142D01*
X159829523Y-86236904D01*
X159829523Y-85427380D01*
X160829523Y-86427380D02*
X160258095Y-86427380D01*
X160543809Y-86427380D02*
X160543809Y-85427380D01*
X160448571Y-85570238D01*
X160353333Y-85665476D01*
X160258095Y-85713095D01*
G04 #@! TD*
M02*
